Coordinates
version=1
nRows=10
nColumns=40
inDegrees=yes

Units are S.I. units (second, meters, Newtons, ...)
If the header above contains a line with 'inDegrees', this indicates whether rotational values are in degrees (yes) or radians (no).

endheader
time	pelvis_tilt	pelvis_list	pelvis_rotation	pelvis_tx	pelvis_ty	pelvis_tz	hip_flexion_r	hip_adduction_r	hip_rotation_r	knee_angle_r	knee_angle_r_beta	ankle_angle_r	subtalar_angle_r	mtp_angle_r	hip_flexion_l	hip_adduction_l	hip_rotation_l	knee_angle_l	knee_angle_l_beta	ankle_angle_l	subtalar_angle_l	mtp_angle_l	lumbar_extension	lumbar_bending	lumbar_rotation	arm_flex_r	arm_add_r	arm_rot_r	elbow_flex_r	pro_sup_r	wrist_flex_r	wrist_dev_r	arm_flex_l	arm_add_l	arm_rot_l	elbow_flex_l	pro_sup_l	wrist_flex_l	wrist_dev_l
      0.75500000	    -15.31074346	     -0.58853824	     -0.50037354	      0.16881315	      0.70127934	     -1.20904611	     64.22117464	    -37.01150634	    -11.32833316	     78.69318371	      1.37345515	     19.25784283	      0.26477780	      0.00000000	     65.27488502	    -41.47218217	    -13.56374034	     78.56157500	      1.37115815	     19.48669277	     12.17875011	      0.00000000	    -12.46233812	      0.73575493	     -1.70315409	     44.99900998	    -15.00000957	     44.99900998	     75.00017608	     45.00000026	      0.00000000	      0.00000000	     44.99900998	    -15.00000957	     44.99900998	     75.00017608	     45.00000026	      0.00000000	      0.00000000
      0.76000000	    -15.12196615	     -0.58950277	     -0.49258948	      0.16864133	      0.69911187	     -1.20911640	     64.43549609	    -37.17411497	    -11.06973720	     79.27112697	      1.38354217	     19.45694158	      0.41332231	      0.00000000	     65.52159824	    -41.59362087	    -13.22117802	     79.13663087	      1.38119477	     19.71974957	     12.29446291	      0.00000000	    -12.91744671	      0.73835972	     -1.71940152	     44.99901305	    -15.00000952	     44.99901305	     75.00017607	     45.00000026	      0.00000000	      0.00000000	     44.99901305	    -15.00000952	     44.99901305	     75.00017607	     45.00000026	      0.00000000	      0.00000000
      0.76500000	    -15.05805055	     -0.59221391	     -0.47464831	      0.16856900	      0.69707792	     -1.20927301	     64.68265374	    -37.34790460	    -10.90071621	     79.69894001	      1.39100891	     19.64208263	      0.61489978	      0.00000000	     65.81810775	    -41.70146101	    -12.99005775	     79.58045265	      1.38894092	     19.89112982	     12.42485996	      0.00000000	    -13.17725432	      0.75151446	     -1.74369105	     44.99901621	    -15.00000947	     44.99901621	     75.00017607	     45.00000026	      0.00000000	      0.00000000	     44.99901621	    -15.00000947	     44.99901621	     75.00017607	     45.00000026	      0.00000000	      0.00000000
      0.77000000	    -15.67352114	     -0.69469872	     -0.30607104	      0.16793536	      0.69296347	     -1.20979413	     65.75875707	    -37.61612108	    -10.75006210	     80.30606338	      1.40160522	     19.86149319	      0.96381333	      0.00000000	     67.33467960	    -41.59259070	    -12.16299626	     80.24870177	      1.40060407	     20.05214513	     12.37761305	      0.00000000	    -12.43180125	      0.85377632	     -2.06148472	     44.99902301	    -15.00000935	     44.99902301	     75.00017607	     45.00000026	      0.00000000	      0.00000000	     44.99902301	    -15.00000935	     44.99902301	     75.00017607	     45.00000026	      0.00000000	      0.00000000
      0.77500000	    -15.54052542	     -0.70951933	     -0.27497593	      0.16799160	      0.69112164	     -1.20999897	     65.87830629	    -37.77736327	    -10.58137037	     80.70180152	      1.40851215	     20.05007012	      1.18116979	      0.00000000	     67.54344365	    -41.71394160	    -11.96215205	     80.67571187	      1.40805680	     20.22942936	     12.54860787	      0.00000000	    -12.76634516	      0.86631013	     -2.09927969	     44.99902675	    -15.00000929	     44.99902675	     75.00017606	     45.00000026	      0.00000000	      0.00000000	     44.99902675	    -15.00000929	     44.99902675	     75.00017606	     45.00000026	      0.00000000	      0.00000000
      0.78000000	    -15.35647923	     -0.70343052	     -0.30582616	      0.16792511	      0.68938108	     -1.21006565	     66.01876600	    -37.94654018	    -10.45300864	     81.10517964	      1.41555243	     20.06862990	      1.26220236	      0.00000000	     67.66338566	    -41.86107846	    -11.77885793	     81.10451435	      1.41554081	     20.27953979	     12.53148173	      0.00000000	    -13.18403368	      0.88272741	     -2.11286942	     44.99903007	    -15.00000924	     44.99903007	     75.00017606	     45.00000026	      0.00000000	      0.00000000	     44.99903007	    -15.00000924	     44.99903007	     75.00017606	     45.00000026	      0.00000000	      0.00000000
      0.78500000	    -15.26413109	     -0.70911049	     -0.27147938	      0.16794565	      0.68732490	     -1.21021663	     66.22620813	    -38.11834433	    -10.25464229	     81.55577844	      1.42341686	     20.30828086	      1.51064633	      0.00000000	     67.93860338	    -41.96644883	    -11.53917522	     81.54679807	      1.42326012	     20.49786691	     12.73619238	      0.00000000	    -13.51229286	      0.88548533	     -2.13034261	     44.99903334	    -15.00000918	     44.99903334	     75.00017606	     45.00000026	      0.00000000	      0.00000000	     44.99903334	    -15.00000918	     44.99903334	     75.00017606	     45.00000026	      0.00000000	      0.00000000
      0.79000000	    -15.19889562	     -0.70823653	     -0.25433631	      0.16796389	      0.68528004	     -1.21039229	     66.46404210	    -38.30929107	    -10.10382841	     81.94813881	      1.43026484	     20.44820819	      1.74723340	      0.00000000	     68.21870556	    -42.08099374	    -11.32653161	     81.97690502	      1.43076690	     20.61186374	     12.86532518	      0.00000000	    -13.71627055	      0.90436089	     -2.16042131	     44.99903673	    -15.00000913	     44.99903673	     75.00017606	     45.00000026	      0.00000000	      0.00000000	     44.99903673	    -15.00000913	     44.99903673	     75.00017606	     45.00000026	      0.00000000	      0.00000000
      0.79500000	    -15.24995933	     -0.71997589	     -0.20150654	      0.16790970	      0.68273076	     -1.21061185	     66.87068302	    -38.52727760	     -9.91169379	     82.42742402	      1.43862994	     20.69477266	      2.13267029	      0.00000000	     68.72691840	    -42.15523454	    -11.00398915	     82.47402936	      1.43944336	     20.79474861	     13.10242488	      0.00000000	    -13.70760303	      0.93897424	     -2.23025219	     44.99904099	    -15.00000906	     44.99904099	     75.00017606	     45.00000026	      0.00000000	      0.00000000	     44.99904099	    -15.00000906	     44.99904099	     75.00017606	     45.00000026	      0.00000000	      0.00000000
      0.80000000	    -15.49596921	     -0.77131365	     -0.13508767	      0.16756737	      0.67959952	     -1.21087980	     67.53878639	    -38.73504021	     -9.72259868	     82.94134912	      1.44759963	     20.75909164	      2.38482047	      0.00000000	     69.61528333	    -42.16040584	    -10.44006880	     83.03356233	      1.44920905	     20.84343998	     13.06652009	      0.00000000	    -13.53562700	      0.98250553	     -2.40156982	     44.99904647	    -15.00000897	     44.99904647	     75.00017605	     45.00000026	      0.00000000	      0.00000000	     44.99904647	    -15.00000897	     44.99904647	     75.00017605	     45.00000026	      0.00000000	      0.00000000
